<svg width="20" height="20" viewBox="0 0 20 20" fill="none" xmlns="http://www.w3.org/2000/svg">
    <rect width="20" height="20" rx="10" fill="#333333"/>
    <path fill-rule="evenodd" clip-rule="evenodd" d="M6.0684 6.37347C6.0684 4.23389 7.82803 2.5 9.99937 2.5C12.1707 2.5 13.9316 4.23389 13.9316 6.37347C13.9316 8.51434 12.1707 10.2482 9.99937 10.2482C7.82803 10.2482 6.0684 8.51434 6.0684 6.37347ZM10.028 18.3333C12.624 18.3333 14.9734 17.3092 16.6667 15.6617V14.4929C16.6667 13.0796 15.4734 11.9326 14 11.9326H6.00004C4.52671 11.9326 3.33337 13.0796 3.33337 14.4929V15.6028C5.03071 17.2836 7.40271 18.3333 10.028 18.3333Z" fill="#FFDD2D"/>
</svg>