<svg width="28" height="24" viewBox="0 0 28 24" fill="none" xmlns="http://www.w3.org/2000/svg">
    <path fill-rule="evenodd" clip-rule="evenodd" d="M0 3.81011C0 2.014 0 1.11595 0.585786 0.557977C1.17157 0 2.11438 0 4 0H24C25.8856 0 26.8284 0 27.4142 0.557977C28 1.11595 28 2.014 28 3.81011V16.1929C28 17.989 28 18.8871 27.4142 19.4451C26.8284 20.0031 25.8856 20.0031 24 20.0031H16.2679L9 24V20.0031H4C2.11438 20.0031 1.17157 20.0031 0.585786 19.4451C0 18.8871 0 17.989 0 16.1929V3.81011ZM4 6.75C4 6.05964 4.55964 5.5 5.25 5.5H18.75C19.4404 5.5 20 6.05964 20 6.75C20 7.44036 19.4404 8 18.75 8H5.25C4.55964 8 4 7.44036 4 6.75ZM5.25 9.5C4.55964 9.5 4 10.0596 4 10.75C4 11.4404 4.55964 12 5.25 12H12.75C13.4404 12 14 11.4404 14 10.75C14 10.0596 13.4404 9.5 12.75 9.5H5.25Z" fill="#313132"/>
</svg>