<svg width="32" height="33" viewBox="0 0 32 33" fill="none" xmlns="http://www.w3.org/2000/svg">
    <rect y="0.5" width="32" height="32" rx="16" fill="#313132"/>
    <path fill-rule="evenodd" clip-rule="evenodd" d="M9.70954 10.6976C9.70954 7.27422 12.5249 4.5 15.9991 4.5C19.4732 4.5 22.2907 7.27422 22.2907 10.6976C22.2907 14.1229 19.4732 16.8972 15.9991 16.8972C12.5249 16.8972 9.70954 14.1229 9.70954 10.6976ZM16.045 29.8333C20.1986 29.8333 23.9575 28.1948 26.6668 25.5587V23.6887C26.6668 21.4274 24.7575 19.5922 22.4002 19.5922H9.60016C7.24283 19.5922 5.3335 21.4274 5.3335 23.6887V25.4645C8.04923 28.1538 11.8444 29.8333 16.045 29.8333Z" fill="white"/>
</svg>