<svg width="30" height="30" viewBox="0 0 30 30" fill="none" xmlns="http://www.w3.org/2000/svg">
    <mask id="mask0_440_159" style="mask-type:alpha" maskUnits="userSpaceOnUse" x="3" y="4" width="24" height="24">
        <rect x="3" y="4" width="24" height="24" fill="#D9D9D9"/>
    </mask>
    <g mask="url(#mask0_440_159)">
        <path d="M16.45 23.7C15.6249 24.4398 14.3751 24.4398 13.55 23.7C11.8667 22.1834 10.475 20.875 9.375 19.775C8.275 18.675 7.4 17.6875 6.75 16.8125C6.1 15.9375 5.64583 15.1334 5.3875 14.4C5.12917 13.6667 5 12.9167 5 12.15C5 10.5834 5.525 9.27502 6.575 8.22502C7.625 7.17502 8.93333 6.65002 10.5 6.65002C11.3667 6.65002 12.1917 6.83336 12.975 7.20002C13.7583 7.56669 14.4333 8.08336 15 8.75002C15.5667 8.08336 16.2417 7.56669 17.025 7.20002C17.8083 6.83336 18.6333 6.65002 19.5 6.65002C21.0667 6.65002 22.375 7.17502 23.425 8.22502C24.475 9.27502 25 10.5834 25 12.15C25 12.9167 24.8708 13.6667 24.6125 14.4C24.3542 15.1334 23.9 15.9375 23.25 16.8125C22.6 17.6875 21.725 18.675 20.625 19.775C19.525 20.875 18.1333 22.1834 16.45 23.7ZM13.6717 21.0974C14.298 21.6711 14.6112 21.958 15 21.958C15.3888 21.958 15.702 21.6711 16.3283 21.0974C17.3443 20.1667 18.2182 19.3384 18.95 18.6125C19.9833 17.5875 20.8 16.6959 21.4 15.9375C22 15.1792 22.4167 14.5042 22.65 13.9125C22.8833 13.3209 23 12.7334 23 12.15C23 11.15 22.6667 10.3167 22 9.65002C21.3333 8.98336 20.5 8.65002 19.5 8.65002C18.7167 8.65002 17.9917 8.87086 17.325 9.31252C16.9518 9.55978 16.6439 9.84491 16.4012 10.1679C16.0585 10.6241 15.5706 11 15 11C14.4294 11 13.9415 10.6241 13.5988 10.1679C13.3561 9.84491 13.0482 9.55978 12.675 9.31252C12.0083 8.87086 11.2833 8.65002 10.5 8.65002C9.5 8.65002 8.66667 8.98336 8 9.65002C7.33333 10.3167 7 11.15 7 12.15C7 12.7334 7.11667 13.3209 7.35 13.9125C7.58333 14.5042 8 15.1792 8.6 15.9375C9.2 16.6959 10.0167 17.5875 11.05 18.6125C11.7818 19.3384 12.6557 20.1667 13.6717 21.0974Z" fill="url(#paint0_linear_440_159)"/>
        <path d="M13.6717 21.0974C14.298 21.6711 14.6112 21.958 15 21.958C15.3888 21.958 15.702 21.6711 16.3283 21.0974C17.3443 20.1667 18.2182 19.3384 18.95 18.6125C19.9833 17.5875 20.8 16.6959 21.4 15.9375C22 15.1792 22.4167 14.5042 22.65 13.9125C22.8833 13.3209 23 12.7334 23 12.15C23 11.15 22.6667 10.3167 22 9.65002C21.3333 8.98336 20.5 8.65002 19.5 8.65002C18.7167 8.65002 17.9917 8.87086 17.325 9.31252C16.9518 9.55978 16.6439 9.84491 16.4012 10.1679C16.0585 10.6241 15.5706 11 15 11C14.4294 11 13.9415 10.6241 13.5988 10.1679C13.3561 9.84491 13.0482 9.55978 12.675 9.31252C12.0083 8.87086 11.2833 8.65002 10.5 8.65002C9.5 8.65002 8.66667 8.98336 8 9.65002C7.33333 10.3167 7 11.15 7 12.15C7 12.7334 7.11667 13.3209 7.35 13.9125C7.58333 14.5042 8 15.1792 8.6 15.9375C9.2 16.6959 10.0167 17.5875 11.05 18.6125C11.7818 19.3384 12.6557 20.1667 13.6717 21.0974Z" fill="url(#paint1_linear_440_159)"/>
    </g>
    <defs>
        <linearGradient id="paint0_linear_440_159" x1="15" y1="6.65002" x2="15" y2="25" gradientUnits="userSpaceOnUse">
            <stop stop-color="#CACACA"/>
            <stop offset="1" stop-color="#BEBEBE"/>
        </linearGradient>
        <linearGradient id="paint1_linear_440_159" x1="15" y1="6.65002" x2="15" y2="25" gradientUnits="userSpaceOnUse">
            <stop stop-color="#CACACA"/>
            <stop offset="1" stop-color="#BEBEBE"/>
        </linearGradient>
    </defs>
</svg>