<svg width="110" height="30" viewBox="0 0 110 30" fill="none" xmlns="http://www.w3.org/2000/svg">
    <rect width="88" height="24" transform="translate(12 6)" fill="#FFDD2D"/>
    <path d="M29.2188 18.8906H25.6953V20.8203H29.8047V23H22.9609V12.6328H29.6484V14.8047H25.6953V16.7109H29.2188V18.8906ZM39.9609 12.6328L37.5625 17.4609L40.25 23H37.3047L36.4922 21.3047C36.4401 21.1953 36.3672 21.0469 36.2734 20.8594C36.1849 20.6667 36.1172 20.5234 36.0703 20.4297C36.0234 20.3359 35.9635 20.2161 35.8906 20.0703C35.8229 19.9245 35.7708 19.8099 35.7344 19.7266C35.6979 19.638 35.6589 19.5443 35.6172 19.4453C35.5807 19.3464 35.5521 19.263 35.5312 19.1953C35.5104 19.1224 35.4948 19.0573 35.4844 19H35.2422C35.1068 19.4948 34.7448 20.2943 34.1562 21.3984L33.3047 23H30.4375L33.2891 17.6406L30.6641 12.6328H33.5938L34.1562 13.6875C34.7656 14.8542 35.1484 15.862 35.3047 16.7109H35.5469C35.6979 15.763 36.0495 14.7552 36.6016 13.6875L37.1484 12.6328H39.9609ZM49.1953 18.875C49.2474 19.5208 49.1979 20.099 49.0469 20.6094C48.901 21.1198 48.6901 21.5365 48.4141 21.8594C48.138 22.1823 47.8021 22.4505 47.4062 22.6641C47.0104 22.8776 46.6016 23.026 46.1797 23.1094C45.763 23.1979 45.3229 23.2422 44.8594 23.2422C44.2135 23.2422 43.6042 23.1224 43.0312 22.8828C42.4583 22.6432 41.9505 22.3021 41.5078 21.8594C41.0703 21.4115 40.724 20.8385 40.4688 20.1406C40.2135 19.4427 40.0859 18.6667 40.0859 17.8125C40.0859 17.1042 40.1693 16.4531 40.3359 15.8594C40.5078 15.2656 40.7448 14.7578 41.0469 14.3359C41.349 13.9089 41.7057 13.5469 42.1172 13.25C42.5286 12.9531 42.974 12.7344 43.4531 12.5938C43.9323 12.4479 44.4375 12.375 44.9688 12.375C45.4271 12.375 45.8724 12.4297 46.3047 12.5391C46.737 12.6432 47.1432 12.8125 47.5234 13.0469C47.9089 13.2812 48.2344 13.5677 48.5 13.9062C48.7708 14.2448 48.9688 14.6641 49.0938 15.1641C49.2188 15.6641 49.2422 16.2161 49.1641 16.8203H46.5859C46.6693 16.0911 46.5833 15.5443 46.3281 15.1797C46.0781 14.8151 45.6094 14.6328 44.9219 14.6328C44.224 14.6328 43.7135 14.9036 43.3906 15.4453C43.0677 15.9818 42.9062 16.7708 42.9062 17.8125C42.9062 19.9271 43.6042 20.9844 45 20.9844C45.5781 20.9844 46.0026 20.8281 46.2734 20.5156C46.5495 20.1979 46.6797 19.651 46.6641 18.875H49.1953ZM55.1719 23.2266C54.1198 23.2266 53.2188 22.9948 52.4688 22.5312C51.724 22.0677 51.1693 21.4323 50.8047 20.625C50.4401 19.8177 50.2578 18.875 50.2578 17.7969C50.2578 16.724 50.4401 15.7865 50.8047 14.9844C51.1745 14.1771 51.7318 13.5443 52.4766 13.0859C53.2266 12.6224 54.1302 12.3906 55.1875 12.3906C56.25 12.3906 57.1562 12.6224 57.9062 13.0859C58.6615 13.5443 59.2214 14.1771 59.5859 14.9844C59.9505 15.7865 60.1328 16.724 60.1328 17.7969C60.1328 18.875 59.9479 19.8177 59.5781 20.625C59.2135 21.4323 58.6536 22.0677 57.8984 22.5312C57.1432 22.9948 56.2344 23.2266 55.1719 23.2266ZM55.1719 20.9844C55.9167 20.9844 56.4609 20.724 56.8047 20.2031C57.1484 19.6823 57.3203 18.8802 57.3203 17.7969C57.3203 16.7292 57.1484 15.9349 56.8047 15.4141C56.4609 14.8932 55.9167 14.6328 55.1719 14.6328C54.4427 14.6328 53.9115 14.8932 53.5781 15.4141C53.2448 15.9297 53.0781 16.724 53.0781 17.7969C53.0781 18.8802 53.2422 19.6823 53.5703 20.2031C53.9036 20.724 54.4375 20.9844 55.1719 20.9844ZM61.5703 12.6328H65.2969C65.8333 12.6328 66.3229 12.6719 66.7656 12.75C67.2083 12.8281 67.6198 12.9635 68 13.1562C68.3854 13.3438 68.7083 13.5859 68.9688 13.8828C69.2344 14.1745 69.4401 14.5469 69.5859 15C69.737 15.4531 69.8125 15.9714 69.8125 16.5547C69.8125 17.2266 69.6927 17.8229 69.4531 18.3438C69.2135 18.8594 68.8776 19.2786 68.4453 19.6016C68.0182 19.9193 67.5208 20.1615 66.9531 20.3281C66.3854 20.4896 65.7578 20.5703 65.0703 20.5703H64.3047V23H61.5703V12.6328ZM65.0547 14.9531H64.3047V18.25H65.0703C66.3724 18.25 67.0234 17.6901 67.0234 16.5703C67.0234 16.0182 66.8646 15.612 66.5469 15.3516C66.2292 15.0859 65.7318 14.9531 65.0547 14.9531ZM77.3438 18.8906H73.8203V20.8203H77.9297V23H71.0859V12.6328H77.7734V14.8047H73.8203V16.7109H77.3438V18.8906ZM81.9297 12.6328L83.4609 14.9688C84.7474 16.9219 85.5755 18.3776 85.9453 19.3359L86.1328 19.2891C86.0234 18.8672 85.9193 18.2292 85.8203 17.375C85.7214 16.5208 85.6719 15.7135 85.6719 14.9531V12.6328H88.1953V23H85.6406L84.1016 20.6641C82.8255 18.7318 82 17.276 81.625 16.2969L81.4297 16.3438C81.5391 16.7656 81.6432 17.4036 81.7422 18.2578C81.8411 19.112 81.8906 19.9193 81.8906 20.6797V23H79.3672V12.6328H81.9297Z" fill="#313132"/>
    <path d="M5.54294 5.01547C5.74937 4.89859 5.92966 4.82066 6.09166 4.77131C6.62992 4.60508 7.12899 5.12456 6.96438 5.65963L6.49666 7.1973L5.00991 11.8986C5.00991 11.8986 3.64334 16.2077 5.21633 15.9922C6.6247 15.7974 10.4605 6.26743 11.2444 4.283C11.3306 4.06482 11.5187 3.90378 11.7513 3.85443C13.3373 3.51676 15.0331 2.74273 15.5531 2.49597C15.6576 2.44662 15.7464 2.3713 15.817 2.28039L15.9137 2.15052C16.4232 2.11415 16.3971 1.74013 16.3971 1.74013C16.3448 1.03363 15.6184 1.03882 15.6184 1.03882C15.6184 1.03882 11.4847 1.40766 9.98493 1.73493C8.67846 2.01805 7.36416 2.68559 7.04277 2.85442C6.97222 2.89078 6.89906 2.91676 6.81805 2.92715C6.71876 2.94273 6.56983 2.95312 6.36602 2.93754C5.94795 2.90896 6.57505 2.19208 6.57505 2.19208C6.8886 1.67779 6.78409 1.6674 6.67434 1.3687C6.58812 1.13493 5.77027 1.21545 5.42536 1.2596C5.33652 1.26999 5.2503 1.29857 5.17191 1.34272C4.97855 1.45181 4.53958 1.6674 4.09015 1.6622C3.48657 1.65701 3.64857 1.92714 3.44737 1.9635C3.24618 1.99987 2.29768 5.20249 2.29768 5.20249L0.262209 12.909C0.262209 12.909 0.194273 14.0025 1.26819 13.4207C2.23497 12.896 4.73816 6.63886 5.23201 5.38171C5.2921 5.23106 5.40446 5.10378 5.54556 5.02326L5.54294 5.01547Z" fill="white"/>
    <path d="M11.3594 7.77394C11.1451 6.97913 11.4143 4.60509 12.1041 4.56353C12.7939 4.52197 13.8992 5.01029 13.2146 6.19471C12.53 7.37913 11.558 8.5168 11.3594 7.77654V7.77394Z" fill="white"/>
    <path d="M17.071 9.19214C17.071 9.19214 17.058 7.45447 15.4458 8.3246C13.8336 9.19474 13.8937 9.76097 13.8937 9.76097C13.8937 9.76097 13.6977 10.9999 15.3334 10.8779C16.5354 10.787 18.1084 11.0155 18.8583 11.1428C19.2737 11.2129 19.6552 11.4415 19.8669 11.7999C20.1543 12.2857 20.1177 12.9948 18.2834 13.6052C15.3805 14.5688 12.3469 15.2935 11.8974 15.3974C11.8556 15.4078 11.819 15.4156 11.7772 15.4207C11.3722 15.4805 9.21395 15.7532 10.5413 14.6104C12.002 13.3506 15.1479 12.8025 15.1479 12.8025C15.1479 12.8025 16.9665 12.4571 14.6175 12.1246C12.2685 11.7922 11.8609 10.161 11.8609 10.161C11.8609 10.161 11.4219 9.21292 13.3633 7.71161C15.1401 6.33758 14.1106 6.80251 15.5399 6.04926C16.9691 5.29601 17.9281 5.45705 17.9281 5.45705C17.9281 5.45705 19.049 5.40251 18.6623 6.5194C18.4219 7.2181 18.4951 7.65187 18.5839 7.88304C18.6623 8.08564 18.7067 8.30382 18.6832 8.51941C18.6414 8.9298 18.4977 9.50643 18.0352 9.67786C17.2304 9.97396 17.0684 9.19474 17.0684 9.19474L17.071 9.19214Z" fill="white"/>
    <path d="M5.28159 3.97665C5.48801 3.85977 5.66831 3.78184 5.83031 3.73249C6.36857 3.56626 6.86764 4.08574 6.70303 4.62081L6.23531 6.15848L4.74855 10.8598C4.74855 10.8598 3.38199 15.1689 4.95498 14.9533C6.36335 14.7585 10.1991 5.2286 10.983 3.24418C11.0692 3.02599 11.2574 2.86495 11.4899 2.8156C13.076 2.47794 14.7718 1.70391 15.2917 1.45715C15.3962 1.4078 15.4851 1.33248 15.5556 1.24157L15.6523 1.1117C16.1618 1.07533 16.1357 0.701304 16.1357 0.701304C16.0835 -0.00519378 15.3571 1.09116e-06 15.3571 1.09116e-06C15.3571 1.09116e-06 11.2234 0.368834 9.72357 0.696109C8.41711 0.979228 7.1028 1.64676 6.78141 1.8156C6.71087 1.85196 6.6377 1.87793 6.5567 1.88832C6.45741 1.90391 6.30847 1.9143 6.10466 1.89871C5.6866 1.87014 6.3137 1.15325 6.3137 1.15325C6.62725 0.638966 6.52273 0.628576 6.41299 0.329873C6.32676 0.0961055 5.50892 0.176625 5.16401 0.220782C5.07517 0.231171 4.98894 0.259743 4.91055 0.303899C4.7172 0.412991 4.27823 0.628576 3.8288 0.623381C3.22521 0.618187 3.38722 0.888318 3.18602 0.924682C2.98482 0.961046 2.03633 4.16366 2.03633 4.16366L0.000856933 11.8702C0.000856933 11.8702 -0.0670793 12.9637 1.00684 12.3819C1.97362 11.8572 4.47681 5.60004 4.97065 4.34289C5.03075 4.19223 5.14311 4.06496 5.2842 3.98444L5.28159 3.97665Z" fill="#313132"/>
    <path d="M11.0979 6.73511C10.8837 5.9403 11.1528 3.56626 11.8426 3.5247C12.5324 3.48315 13.6377 3.97146 12.9531 5.15588C12.2685 6.34031 11.2965 7.47798 11.0979 6.73771V6.73511Z" fill="#313132"/>
    <path d="M16.8098 8.1532C16.8098 8.1532 16.7967 6.41553 15.1846 7.28566C13.5724 8.1558 13.6325 8.72204 13.6325 8.72204C13.6325 8.72204 13.4365 9.96101 15.0722 9.83893C16.2742 9.74802 17.8471 9.97659 18.5971 10.1039C19.0125 10.174 19.394 10.4026 19.6056 10.761C19.8931 11.2467 19.8565 11.9558 18.0222 12.5662C15.1192 13.5299 12.0856 14.2545 11.6362 14.3584C11.5944 14.3688 11.5578 14.3766 11.516 14.3818C11.111 14.4416 8.95272 14.7143 10.2801 13.5714C11.7407 12.3117 14.8867 11.7636 14.8867 11.7636C14.8867 11.7636 16.7053 11.4182 14.3563 11.0857C12.0072 10.7532 11.5996 9.12204 11.5996 9.12204C11.5996 9.12204 11.1606 8.17398 13.1021 6.67267C14.8789 5.29864 13.8494 5.76358 15.2786 5.01033C16.7079 4.25707 17.6669 4.41811 17.6669 4.41811C17.6669 4.41811 18.7878 4.36357 18.4011 5.48046C18.1607 6.17916 18.2339 6.61293 18.3227 6.8441C18.4011 7.0467 18.4455 7.26489 18.422 7.48047C18.3802 7.89086 18.2365 8.46749 17.774 8.63892C16.9692 8.93503 16.8072 8.1558 16.8072 8.1558L16.8098 8.1532Z" fill="#313132"/>
</svg>