<svg width="32" height="32" viewBox="0 0 32 32" fill="none" xmlns="http://www.w3.org/2000/svg">
    <path d="M5.95875 16.7827C7.82915 15.7524 9.91702 14.8925 11.8678 14.0283C15.224 12.6127 18.5934 11.2216 21.9969 9.92655C22.6591 9.70589 23.8489 9.49013 23.9656 10.4714C23.9016 11.8605 23.6388 13.2414 23.4586 14.6224C23.0011 17.6592 22.4723 20.6856 21.9566 23.7124C21.7789 24.7206 20.5159 25.2425 19.7078 24.5973C17.7657 23.2855 15.8086 21.9863 13.8913 20.6441C13.2632 20.0059 13.8456 19.0894 14.4065 18.6337C16.0061 17.0573 17.7025 15.7179 19.2185 14.0601C19.6275 13.0726 18.4192 13.9048 18.0206 14.1598C15.8308 15.6689 13.6945 17.2701 11.3857 18.5964C10.2064 19.2456 8.83185 18.6908 7.65305 18.3285C6.59613 17.8909 5.04731 17.45 5.95865 16.7828L5.95875 16.7827Z" fill="#313132"/>
</svg>