<svg width="32" height="32" viewBox="0 0 32 32" fill="none" xmlns="http://www.w3.org/2000/svg">
    <path fill-rule="evenodd" clip-rule="evenodd" d="M26.1296 10.9539C26.2876 10.457 26.1296 10.0957 25.4295 10.0957H23.1034C22.5163 10.0957 22.2453 10.4119 22.0872 10.7506C22.0872 10.7506 20.8903 13.6412 19.2192 15.5156C18.6772 16.0576 18.4288 16.2383 18.1352 16.2383C17.9771 16.2383 17.7739 16.0576 17.7739 15.5608V10.9313C17.7739 10.3441 17.5932 10.0731 17.0964 10.0731H13.438C13.0766 10.0731 12.8508 10.3441 12.8508 10.6151C12.8508 11.1797 13.6864 11.3152 13.7767 12.896V16.3286C13.7767 17.0738 13.6412 17.2093 13.3476 17.2093C12.5572 17.2093 10.6377 14.2961 9.48595 10.9764C9.26012 10.3215 9.03429 10.0731 8.44713 10.0731H6.09851C5.42102 10.0731 5.30811 10.3893 5.30811 10.728C5.30811 11.3378 6.09851 14.409 8.98912 18.474C10.9087 21.2517 13.6412 22.7421 16.1027 22.7421C17.5932 22.7421 17.7739 22.4034 17.7739 21.8388V19.7386C17.7739 19.0611 17.9094 18.9482 18.3836 18.9482C18.7224 18.9482 19.3321 19.1289 20.7097 20.4613C22.2905 22.0421 22.5615 22.7647 23.4422 22.7647H25.7682C26.4457 22.7647 26.7619 22.426 26.5812 21.7711C26.378 21.1162 25.6102 20.1677 24.6165 19.0385C24.0745 18.4062 23.2615 17.7061 23.0131 17.3674C22.6744 16.9157 22.7647 16.7351 23.0131 16.3286C22.9905 16.3286 25.836 12.3088 26.1296 10.9539Z" fill="#313132"/>
</svg>