<svg width="20" height="20" viewBox="0 0 20 20" fill="none" xmlns="http://www.w3.org/2000/svg">
    <path d="M10 15C12.7614 15 15 12.7614 15 10C15 7.23858 12.7614 5 10 5C7.23858 5 5 7.23858 5 10C5 12.7614 7.23858 15 10 15Z" stroke="url(#paint0_linear_440_179)" stroke-width="2" stroke-linecap="round" stroke-linejoin="round"/>
    <path d="M10 8.33333V9.99999L10.8333 10.8333" stroke="url(#paint1_linear_440_179)" stroke-width="2" stroke-linecap="round" stroke-linejoin="round"/>
    <path d="M13.4417 6.38334L12.7667 3.00834C12.6905 2.62468 12.4818 2.28004 12.1771 2.03476C11.8724 1.78948 11.4911 1.65918 11.1 1.66667H8.86672C8.47563 1.65918 8.09437 1.78948 7.78967 2.03476C7.48497 2.28004 7.27625 2.62468 7.20005 3.00834L6.55005 6.38334" stroke="url(#paint2_linear_440_179)" stroke-width="2" stroke-linecap="round" stroke-linejoin="round"/>
    <path d="M6.56665 13.6333L7.23332 16.9667C7.30952 17.3503 7.51824 17.695 7.82294 17.9402C8.12764 18.1855 8.5089 18.3158 8.89998 18.3083H11.1666C11.5577 18.3158 11.939 18.1855 12.2437 17.9402C12.5484 17.695 12.7571 17.3503 12.8333 16.9667L13.5083 13.5917" stroke="url(#paint3_linear_440_179)" stroke-width="2" stroke-linecap="round" stroke-linejoin="round"/>
    <defs>
        <linearGradient id="paint0_linear_440_179" x1="10" y1="5" x2="10" y2="15" gradientUnits="userSpaceOnUse">
            <stop stop-color="#CACACA"/>
            <stop offset="1" stop-color="#BEBEBE"/>
        </linearGradient>
        <linearGradient id="paint1_linear_440_179" x1="10.4167" y1="8.33333" x2="10.4167" y2="10.8333" gradientUnits="userSpaceOnUse">
            <stop stop-color="#CACACA"/>
            <stop offset="1" stop-color="#BEBEBE"/>
        </linearGradient>
        <linearGradient id="paint2_linear_440_179" x1="9.99588" y1="1.66637" x2="9.99588" y2="6.38334" gradientUnits="userSpaceOnUse">
            <stop stop-color="#CACACA"/>
            <stop offset="1" stop-color="#BEBEBE"/>
        </linearGradient>
        <linearGradient id="paint3_linear_440_179" x1="10.0375" y1="13.5917" x2="10.0375" y2="18.3086" gradientUnits="userSpaceOnUse">
            <stop stop-color="#CACACA"/>
            <stop offset="1" stop-color="#BEBEBE"/>
        </linearGradient>
    </defs>
</svg>